<?xml version="1.0" encoding="UTF-8"?>
<svg version="1.1" xmlns="http://www.w3.org/2000/svg" width="50" height="50">
<path d="M0 0 C6.19880457 3.60750102 9.61570189 8.27766754 12.4375 14.875 C13.29021358 21.9271718 13.74514652 29.84797345 9.90234375 36.09765625 C5.5487115 41.38006338 0.40879746 46.75959241 -6.5625 47.875 C-11.80385156 48.23089424 -16.69449216 48.28559804 -21.75 46.75 C-26.55859569 45.64638788 -28.88685218 46.47230565 -33.5625 47.875 C-34.8825 47.875 -36.2025 47.875 -37.5625 47.875 C-37.418125 46.67875 -37.27375 45.4825 -37.125 44.25 C-37.03734375 43.51910156 -36.9496875 42.78820313 -36.859375 42.03515625 C-36.6125987 40.23953396 -36.25714374 38.45925735 -35.875 36.6875 C-35.33451289 33.900124 -35.33451289 33.900124 -36.51953125 31.59375 C-38.65819291 26.01881174 -38.56546544 19.11654295 -36.8046875 13.42578125 C-35.84990642 11.45231642 -34.79734104 9.6840853 -33.5625 7.875 C-33.02625 6.988125 -32.49 6.10125 -31.9375 5.1875 C-23.29555503 -3.22702536 -10.96727602 -5.03415948 0 0 Z " fill="#50B054" transform="translate(37.5625,2.125)"/>
<path d="M0 0 C6.19880457 3.60750102 9.61570189 8.27766754 12.4375 14.875 C13.29021358 21.9271718 13.74514652 29.84797345 9.90234375 36.09765625 C5.5487115 41.38006338 0.40879746 46.75959241 -6.5625 47.875 C-11.80385156 48.23089424 -16.69449216 48.28559804 -21.75 46.75 C-26.55859569 45.64638788 -28.88685218 46.47230565 -33.5625 47.875 C-34.8825 47.875 -36.2025 47.875 -37.5625 47.875 C-37.418125 46.67875 -37.27375 45.4825 -37.125 44.25 C-37.03734375 43.51910156 -36.9496875 42.78820313 -36.859375 42.03515625 C-36.6125987 40.23953396 -36.25714374 38.45925735 -35.875 36.6875 C-35.33451289 33.900124 -35.33451289 33.900124 -36.51953125 31.59375 C-38.65819291 26.01881174 -38.56546544 19.11654295 -36.8046875 13.42578125 C-35.84990642 11.45231642 -34.79734104 9.6840853 -33.5625 7.875 C-33.02625 6.988125 -32.49 6.10125 -31.9375 5.1875 C-23.29555503 -3.22702536 -10.96727602 -5.03415948 0 0 Z M-29 9.4375 C-31.92575928 14.00168448 -32.83785692 16.84719241 -32.8125 22.375 C-32.81765625 23.4990625 -32.8228125 24.623125 -32.828125 25.78125 C-32.56800397 28.81089497 -31.9033247 30.23695465 -30.5625 32.875 C-30.5859375 35.234375 -30.5859375 35.234375 -30.9375 37.625 C-31.04835938 38.42421875 -31.15921875 39.2234375 -31.2734375 40.046875 C-31.36882813 40.65015625 -31.46421875 41.2534375 -31.5625 41.875 C-30.95921875 41.77960937 -30.3559375 41.68421875 -29.734375 41.5859375 C-28.93515625 41.47507813 -28.1359375 41.36421875 -27.3125 41.25 C-26.52359375 41.13398437 -25.7346875 41.01796875 -24.921875 40.8984375 C-22.1873528 40.87127337 -20.96497011 41.64379171 -18.5625 42.875 C-11.93937198 43.6559814 -6.34636559 43.22964204 -0.5625 39.875 C4.64112334 35.76050713 7.61472082 30.29639923 8.82421875 23.796875 C9.13158755 18.41262158 7.4757518 14.18735739 4.4375 9.875 C-0.51215317 4.45794617 -5.51991286 1.93463761 -12.875 1.4375 C-19.44613156 1.59289838 -24.55414346 4.76365081 -29 9.4375 Z " fill="#E8EDED" transform="translate(37.5625,2.125)"/>
<path d="M0 0 C2 0.125 2 0.125 4 1 C5.3125 2.6875 5.3125 2.6875 6 5 C5.773125 5.969375 5.54625 6.93875 5.3125 7.9375 C4.62472424 11.18578302 4.62472424 11.18578302 7.1875 13.8125 C10.28634639 16.32892792 10.28634639 16.32892792 14 17 C14.9590625 16.4740625 14.9590625 16.4740625 15.9375 15.9375 C18 15 18 15 20.75 15.875 C21.4925 16.24625 22.235 16.6175 23 17 C22.625 19.4375 22.625 19.4375 22 22 C18.70482768 23.64758616 15.54742852 23.62957776 12 23 C6.13553135 20.27234016 0.60883489 16.06617433 -2 10 C-2.49798738 7.08094633 -2.35620662 5.00231292 -2 2 C-1.34 1.34 -0.68 0.68 0 0 Z " fill="#F1F6F1" transform="translate(15,13)"/>
</svg>
